<?xml version="1.0" standalone="no"?>
<!DOCTYPE svg PUBLIC "-//W3C//DTD SVG 20010904//EN"
 "http://www.w3.org/TR/2001/REC-SVG-20010904/DTD/svg10.dtd">
<svg version="1.0" xmlns="http://www.w3.org/2000/svg"
 width="167.000000pt" height="47.000000pt" viewBox="0 0 167.000000 47.000000"
 preserveAspectRatio="xMidYMid meet">
<g transform="translate(0.000000,47.000000) scale(0.100000,-0.100000)"
fill="#000000" stroke="none">
<path d="M536 337 c3 -10 9 -15 12 -12 3 3 0 11 -7 18 -10 9 -11 8 -5 -6z"/>
<path d="M1321 230 c-17 -66 -34 -127 -37 -135 -4 -10 0 -15 15 -15 15 0 23
10 31 43 7 23 22 81 36 129 29 104 28 98 6 98 -16 0 -25 -22 -51 -120z"/>
<path d="M386 319 c-53 -41 -28 -97 51 -114 46 -9 59 -29 33 -48 -24 -16 -59
-12 -67 9 -6 16 -53 19 -53 4 0 -6 11 -22 25 -35 50 -51 155 -24 155 39 0 27
-42 66 -69 66 -26 0 -61 29 -55 45 8 20 63 20 70 0 7 -17 54 -21 54 -5 0 6
-11 22 -25 35 -30 31 -82 33 -119 4z"/>
<path d="M1090 226 l0 -116 55 0 c95 0 135 36 135 120 0 30 -7 48 -29 72 -25
29 -35 32 -95 36 l-66 4 0 -116z m117 59 c27 -19 36 -56 22 -92 -13 -34 -25
-43 -64 -43 l-30 0 0 75 c0 74 0 75 25 75 14 0 35 -7 47 -15z"/>
<path d="M232 254 c-97 -46 -95 -63 9 -108 l76 -33 -5 23 c-3 18 -17 28 -53
41 -27 10 -49 20 -49 23 0 3 22 14 49 24 37 13 50 23 54 42 5 29 8 30 -81 -12z"/>
<path d="M1420 266 c0 -19 10 -26 55 -41 30 -11 52 -22 47 -26 -4 -3 -28 -14
-54 -24 -38 -14 -48 -22 -48 -41 0 -22 0 -22 80 13 58 26 80 41 80 55 0 10 -2
18 -4 18 -2 0 -38 16 -80 35 l-76 34 0 -23z"/>
<path d="M580 262 c-13 -10 -23 -33 -27 -59 -5 -35 -2 -45 20 -67 49 -49 130
-27 142 38 8 38 -14 90 -40 100 -30 11 -73 6 -95 -12z m79 -26 c17 -20 10 -77
-11 -89 -24 -16 -48 8 -48 47 0 49 34 73 59 42z"/>
<path d="M750 199 c17 -44 30 -82 30 -85 0 -2 12 -4 28 -4 25 0 29 7 58 86
l32 85 -26 -3 c-24 -3 -29 -10 -42 -65 -13 -57 -30 -84 -30 -50 0 7 -7 37 -15
65 -13 44 -19 52 -40 52 l-24 0 29 -81z"/>
<path d="M929 261 c-32 -26 -17 -38 27 -22 24 9 39 10 46 3 16 -16 0 -32 -31
-32 -51 0 -80 -42 -55 -79 16 -22 68 -29 79 -11 3 6 11 10 16 10 6 0 7 -5 4
-10 -4 -6 5 -10 19 -10 25 0 26 2 26 65 0 52 -4 69 -20 85 -26 26 -80 26 -111
1z m82 -93 c-10 -28 -61 -39 -61 -13 0 8 10 20 23 25 38 15 47 12 38 -12z"/>
</g>
</svg>
